<svg width="190" height="22" viewBox="0 0 190 22" fill="none" xmlns="http://www.w3.org/2000/svg">
<g clip-path="url(#clip0_2001_4010)">
<path d="M-32 0L-15.0775 3.7018C-5.14511 5.87451 5.14135 5.85748 15.0665 3.6519L16.3747 3.36118C26.3377 1.14719 36.6643 1.13858 46.6309 3.33595L48.1789 3.67723C58.1071 5.86613 68.3929 5.86613 78.3211 3.67723L79.9289 3.32277C89.8571 1.13387 100.143 1.13387 110.071 3.32277L111.679 3.67723C121.607 5.86613 131.893 5.86613 141.821 3.67723L143.369 3.33595C153.336 1.13858 163.662 1.14719 173.625 3.36119L174.934 3.6519C184.859 5.85748 195.145 5.87451 205.077 3.70181L222 0V15L205.077 18.7018C195.145 20.8745 184.859 20.8575 174.934 18.6519L173.625 18.3612C163.662 16.1472 153.336 16.1386 143.369 18.336L141.821 18.6772C131.893 20.8661 121.607 20.8661 111.679 18.6772L110.071 18.3228C100.143 16.1339 89.8571 16.1339 79.9289 18.3228L78.3211 18.6772C68.3929 20.8661 58.1071 20.8661 48.1789 18.6772L46.6309 18.3359C36.6643 16.1386 26.3376 16.1472 16.3747 18.3612L15.0664 18.6519C5.14133 20.8575 -5.1451 20.8745 -15.0775 18.7018L-32 15V0Z" fill="#2AFFB2"/>
<path d="M-32 6L-15.0775 9.7018C-5.14511 11.8745 5.14135 11.8575 15.0665 9.6519L16.3747 9.36118C26.3377 7.14719 36.6643 7.13858 46.6309 9.33595L48.1789 9.67723C58.1071 11.8661 68.3929 11.8661 78.3211 9.67723L79.9289 9.32277C89.8571 7.13387 100.143 7.13387 110.071 9.32277L111.679 9.67723C121.607 11.8661 131.893 11.8661 141.821 9.67723L143.369 9.33595C153.336 7.13858 163.662 7.14719 173.625 9.36119L174.934 9.6519C184.859 11.8575 195.145 11.8745 205.077 9.70181L222 6V9L205.077 12.7018C195.145 14.8745 184.859 14.8575 174.934 12.6519L173.625 12.3612C163.662 10.1472 153.336 10.1386 143.369 12.336L141.821 12.6772C131.893 14.8661 121.607 14.8661 111.679 12.6772L110.071 12.3228C100.143 10.1339 89.8571 10.1339 79.9289 12.3228L78.3211 12.6772C68.3929 14.8661 58.1071 14.8661 48.1789 12.6772L46.6309 12.3359C36.6643 10.1386 26.3376 10.1472 16.3747 12.3612L15.0664 12.6519C5.14133 14.8575 -5.1451 14.8745 -15.0775 12.7018L-32 9V6Z" fill="#2BD799"/>
</g>
<defs>
<clipPath id="clip0_2001_4010">
<rect width="190" height="22" fill="white"/>
</clipPath>
</defs>
</svg>
