<svg width="196" height="92" viewBox="0 0 196 92" fill="none" xmlns="http://www.w3.org/2000/svg">
<path d="M0 15C0 6.71573 6.71573 0 15 0H181C189.284 0 196 6.71573 196 15V77C196 85.2843 189.284 92 181 92H15C6.71573 92 0 85.2843 0 77V15Z" fill="#FFEB38"/>
<path d="M181.032 9.9078C181.032 19.798 173.014 27.8156 163.124 27.8156C153.234 27.8156 145.216 19.798 145.216 9.9078C145.216 6.24411 146.316 2.83739 148.205 0H178.044C179.932 2.83739 181.032 6.24411 181.032 9.9078Z" fill="#FFD705"/>
<path d="M196 42.665C194.191 41.7574 192.148 41.2465 189.986 41.2465C182.568 41.2465 176.555 47.2597 176.555 54.6773C176.555 62.095 182.568 68.1082 189.986 68.1082C192.148 68.1082 194.191 67.5973 196 66.6896V42.665Z" fill="#FFD705"/>
<path d="M155.096 92C159.934 88.7938 163.124 83.3005 163.124 77.062C163.124 67.1718 155.107 59.1542 145.216 59.1542C135.326 59.1542 127.309 67.1718 127.309 77.062C127.309 83.3005 130.499 88.7938 135.336 92H155.096Z" fill="#FFD705"/>
<path d="M43.3519 92C45.4735 89.0571 46.7234 85.444 46.7234 81.539C46.7234 71.6488 38.7058 63.6312 28.8156 63.6312C18.9254 63.6312 10.9078 71.6488 10.9078 81.539C10.9078 85.4362 12.1528 89.0427 14.2666 91.9824C14.5096 91.9941 14.7541 92 15 92H43.3519Z" fill="#FFD705"/>
<path d="M0 20.4985V44.0866C1.90987 45.1302 4.10109 45.7234 6.43085 45.7234C13.8485 45.7234 19.8617 39.7102 19.8617 32.2925C19.8617 24.8749 13.8485 18.8617 6.43085 18.8617C4.10109 18.8617 1.90987 19.4549 0 20.4985Z" fill="#FFD705"/>
<path d="M82.539 63.6312C94.9018 63.6312 104.924 53.6092 104.924 41.2464C104.924 28.8837 94.9018 18.8617 82.539 18.8617C70.1763 18.8617 60.1543 28.8837 60.1543 41.2464C60.1543 53.6092 70.1763 63.6312 82.539 63.6312Z" fill="#FFD705"/>
</svg>
