<svg width="277" height="80" viewBox="0 0 277 80" fill="none" xmlns="http://www.w3.org/2000/svg">
<path d="M171 11.5V14.9649H10C4.47715 14.9649 0 19.442 0 24.9649V54.9649C0 60.4877 4.47716 64.9649 10 64.9649H70V68.5C70 74.8513 75.1487 80 81.5 80C87.8513 80 93 74.8513 93 68.5V64.9649H267C272.523 64.9649 277 60.4877 277 54.9649V24.9649C277 19.442 272.523 14.9649 267 14.9649H194V11.5C194 5.14873 188.851 0 182.5 0C176.149 0 171 5.14873 171 11.5Z" fill="#2AFFB2"/>
<path d="M40 15H32V40C32 42.2091 33.7909 44 36 44C38.2091 44 40 42.2091 40 40V15Z" fill="#2BD799"/>
<path d="M152 43V65H160V43C160 40.7909 158.209 39 156 39C153.791 39 152 40.7909 152 43Z" fill="#2BD799"/>
<path d="M223 65V50C223 47.7909 224.791 46 227 46C229.209 46 231 47.7909 231 50V65H223Z" fill="#2BD799"/>
<path d="M68 26V15H60V26C60 28.2091 61.7909 30 64 30C66.2091 30 68 28.2091 68 26Z" fill="#2BD799"/>
<path d="M259 21.9648C256.239 21.9648 254 24.2034 254 26.9648V52.9648C254 55.7263 256.239 57.9648 259 57.9648H265C267.761 57.9648 270 55.7263 270 52.9648V26.9648C270 24.2034 267.761 21.9648 265 21.9648H259Z" fill="#2BD799"/>
</svg>
