<svg width="145" height="145" viewBox="0 0 145 145" fill="none" xmlns="http://www.w3.org/2000/svg">
<rect width="145" height="145" rx="20" fill="#FFEB38"/>
<path d="M66.9355 77C64.4502 77 62.4355 79.0147 62.4355 81.5C62.4355 83.9853 64.4502 86 66.9355 86V77ZM145 102.5H45V111.5H145V102.5ZM39.5 97V49H30.5V97H39.5ZM45 43.5H92.9263V34.5H45V43.5ZM98.4263 49V71.5H107.426V49H98.4263ZM92.9263 77H66.9355V86H92.9263V77ZM98.4263 71.5C98.4263 74.5376 95.9638 77 92.9263 77V86C100.934 86 107.426 79.5081 107.426 71.5H98.4263ZM92.9263 43.5C95.9638 43.5 98.4263 45.9624 98.4263 49H107.426C107.426 40.9919 100.934 34.5 92.9263 34.5V43.5ZM39.5 49C39.5 45.9624 41.9624 43.5 45 43.5V34.5C36.9919 34.5 30.5 40.9919 30.5 49H39.5ZM45 102.5C41.9624 102.5 39.5 100.038 39.5 97H30.5C30.5 105.008 36.9919 111.5 45 111.5V102.5Z" fill="#FFD705"/>
<path d="M47.7709 145H20C9.28041 145 0.530522 136.567 0.0232544 125.973C4.83806 119.325 12.664 115 21.5 115C36.1356 115 48 126.864 48 141.5C48 142.686 47.922 143.855 47.7709 145Z" fill="#FFD705"/>
<path d="M143.769 13.0755C144.565 15.2331 145 17.5658 145 20V36.9019C142.239 39.4461 138.551 41 134.5 41C125.94 41 119 34.0604 119 25.5C119 16.9396 125.94 10 134.5 10C137.975 10 141.184 11.1438 143.769 13.0755Z" fill="#FFD705"/>
<path d="M38 17.5C38 21.6421 34.6422 25 30.5 25C26.3579 25 23 21.6421 23 17.5C23 13.3579 26.3579 10 30.5 10C34.6422 10 38 13.3579 38 17.5Z" fill="#FFD705"/>
<path d="M87 124.5C87 128.642 83.6422 132 79.5 132C75.3579 132 72 128.642 72 124.5C72 120.358 75.3579 117 79.5 117C83.6422 117 87 120.358 87 124.5Z" fill="#FFD705"/>
<path d="M134 60.5C134 64.6421 130.642 68 126.5 68C122.358 68 119 64.6421 119 60.5C119 56.3579 122.358 53 126.5 53C130.642 53 134 56.3579 134 60.5Z" fill="#FFD705"/>
</svg>
