<svg width="190" height="91" viewBox="0 0 190 91" fill="none" xmlns="http://www.w3.org/2000/svg">
<path d="M5.62914 38.3536C2.52023 40.1486 1.45505 44.1239 3.24997 47.2328C5.0449 50.3417 9.02024 51.4069 12.1291 49.612L29.6292 39.5083C32.7381 37.7134 33.8033 33.738 32.0084 30.6291C30.2134 27.5202 26.2381 26.455 23.1292 28.25L5.62914 38.3536Z" fill="#2BD799"/>
<path d="M47.5083 60.6292C45.7133 57.5203 41.738 56.4551 38.6291 58.25C35.5202 60.0449 34.455 64.0202 36.2499 67.1292L44.2528 80.9905C46.0477 84.0994 50.0231 85.1646 53.132 83.3697C56.2409 81.5747 57.3061 77.5994 55.5111 74.4905L47.5083 60.6292Z" fill="#2BD799"/>
<path d="M122.257 68.2624C124.364 71.1688 123.716 75.233 120.81 77.3402L104.893 88.8803C101.987 90.9874 97.9225 90.3396 95.8153 87.4332C93.7081 84.5269 94.356 80.4626 97.2624 78.3554L113.179 66.8154C116.086 64.7082 120.15 65.3561 122.257 68.2624Z" fill="#2BD799"/>
<path d="M165.965 32.7805C163.533 30.1403 159.421 29.9718 156.78 32.4042C154.14 34.8366 153.972 38.9487 156.404 41.5889L169.725 56.0481C172.158 58.6883 176.27 58.8567 178.91 56.4243C181.55 53.9919 181.719 49.8798 179.286 47.2396L165.965 32.7805Z" fill="#2BD799"/>
<path d="M12 56.1166V16H178V39.8849C178 47.9361 171.473 54.4628 163.422 54.4628C155.371 54.4628 148.844 47.9361 148.844 39.8849V38.7319C148.844 36.2646 146.844 34.2645 144.377 34.2645C141.909 34.2645 139.909 36.2646 139.909 38.7319V72.6601C139.909 82.7889 131.698 91 121.569 91C111.441 91 103.229 82.7889 103.229 72.6601V45.3277C103.229 43.1202 101.44 41.3306 99.2323 41.3306C97.0247 41.3306 95.2351 43.1202 95.2351 45.3277V47.7717C95.2351 56.602 88.0768 63.7603 79.2465 63.7603C70.4162 63.7603 63.2578 56.6019 63.2578 47.7716V36.167C63.2578 34.0893 61.5735 32.405 59.4958 32.405C57.418 32.405 55.7337 34.0893 55.7337 36.167V56.1166C55.7337 68.1933 45.9436 77.9835 33.8669 77.9835C21.7901 77.9835 12 68.1934 12 56.1166Z" fill="#2AFFB2"/>
<path d="M21.9552 10C21.4499 4.3935 16.738 0 11 0C4.92487 0 0 4.92487 0 11V18C0 18.2614 0.0091194 18.5207 0.0270574 18.7776C0.00912716 19.016 0 19.257 0 19.5C0 24.7467 4.2533 29 9.5 29H180.5C185.747 29 190 24.7467 190 19.5C190 19.257 189.991 19.0161 189.973 18.7776C189.991 18.5207 190 18.2614 190 18V11C190 4.92487 185.075 0 179 0C173.262 0 168.55 4.3935 168.045 10H167.988C167.727 4.43318 163.131 0 157.5 0C151.869 0 147.273 4.43318 147.012 10L147 10C147 4.47715 142.523 0 137 0C131.477 0 127 4.47715 127 10L126.955 10C126.45 4.3935 121.738 0 116 0C110.262 0 105.55 4.3935 105.045 10H104.955C104.45 4.3935 99.738 0 94 0C88.262 0 83.5501 4.3935 83.0448 10L83 10C83 4.47715 78.5229 0 73 0C67.4772 0 63 4.47715 63 10L62.9883 10C62.7273 4.43318 58.1314 0 52.5 0C46.8686 0 42.2727 4.43318 42.0117 10L42 10C42 4.47715 37.5228 0 32 0C26.4772 0 22 4.47715 22 10L21.9552 10Z" fill="#FFEB38"/>
</svg>
