<svg width="150" height="82" viewBox="0 0 150 82" fill="none" xmlns="http://www.w3.org/2000/svg">
<path d="M35 10C35 4.47715 30.5228 0 25 0C19.4772 0 15 4.47715 15 10L15 28C15 33.5228 19.4772 38 25 38C30.5228 38 35 33.5228 35 28C35 33.5228 39.4772 38 45 38C50.5228 38 55 33.5228 55 28C55 33.5228 59.4772 38 65 38C70.5228 38 75 33.5228 75 28C75 33.5228 79.4771 38 85 38C90.5228 38 95 33.5228 95 28C95 33.5228 99.4771 38 105 38C110.523 38 115 33.5228 115 28C115 33.5228 119.477 38 125 38C130.523 38 135 33.5228 135 28V10C135 4.47715 130.523 0 125 0C119.477 0 115 4.47715 115 10C115 4.47715 110.523 0 105 0C99.4772 0 95 4.47715 95 10C95 4.47715 90.5229 0 85 0C79.4772 0 75 4.47715 75 10C75 4.47715 70.5229 0 65 0C59.4772 0 55 4.47715 55 10C55 4.47715 50.5228 0 45 0C39.4772 0 35 4.47715 35 10Z" fill="#FF8DF4"/>
<rect x="12" y="29" width="126" height="38" fill="#FFA2F3"/>
<path d="M34 43C32.3431 43 31 44.3431 31 46V49.6923C31 51.3492 32.3431 52.6923 34 52.6923C35.6569 52.6923 37 51.3492 37 49.6923V46C37 44.3431 35.6569 43 34 43Z" fill="#FF8DF4"/>
<path d="M61 43C59.3431 43 58 44.3431 58 46V49.6923C58 51.3492 59.3431 52.6923 61 52.6923C62.6569 52.6923 64 51.3492 64 49.6923V46C64 44.3431 62.6569 43 61 43Z" fill="#FF8DF4"/>
<path d="M85 46C85 44.3431 86.3431 43 88 43C89.6569 43 91 44.3431 91 46V49.6923C91 51.3492 89.6569 52.6923 88 52.6923C86.3431 52.6923 85 51.3492 85 49.6923V46Z" fill="#FF8DF4"/>
<path d="M115 43C113.343 43 112 44.3431 112 46V49.6923C112 51.3492 113.343 52.6923 115 52.6923C116.657 52.6923 118 51.3492 118 49.6923V46C118 44.3431 116.657 43 115 43Z" fill="#FF8DF4"/>
<path d="M7.5 14C3.35786 14 0 17.3579 0 21.5C0 25.6421 3.35787 29 7.5 29H142.5C146.642 29 150 25.6421 150 21.5C150 17.3579 146.642 14 142.5 14H7.5Z" fill="#FAAFF0"/>
<path d="M7.5 67C3.35786 67 0 70.3579 0 74.5C0 78.6421 3.35787 82 7.5 82H142.5C146.642 82 150 78.6421 150 74.5C150 70.3579 146.642 67 142.5 67H7.5Z" fill="#FAAFF0"/>
</svg>
