<svg width="952" height="1696" viewBox="0 0 952 1696" fill="none" xmlns="http://www.w3.org/2000/svg">
<g clip-path="url(#clip0_2043_1658)">
<rect width="952" height="1696" fill="#4135DF"/>
<rect x="273.474" y="1363.81" width="53.5502" height="27.5401" rx="13.77" transform="rotate(45 273.474 1363.81)" fill="#3A2EDB"/>
<rect x="325.494" y="1344.3" width="53.5502" height="27.5401" rx="13.77" transform="rotate(45 325.494 1344.3)" fill="#3A2EDB"/>
<rect x="254" y="1420.07" width="53.5502" height="27.5401" rx="13.77" transform="rotate(-45 254 1420.07)" fill="#3A2EDB"/>
<rect x="306.02" y="1447.96" width="53.5502" height="27.5401" rx="13.77" transform="rotate(-45 306.02 1447.96)" fill="#3A2EDB"/>
<rect x="292.25" y="1371.84" width="114.75" height="68.8502" rx="34.4251" fill="#3A2EDB"/>
<rect x="361.1" y="1391.73" width="12.24" height="21.4201" rx="6.12002" fill="#4135DF"/>
<rect x="380.99" y="1391.73" width="12.24" height="21.4201" rx="6.12002" fill="#4135DF"/>
<rect x="560.474" y="956.81" width="53.5502" height="27.5401" rx="13.77" transform="rotate(45 560.474 956.81)" fill="#3A2EDB"/>
<rect x="612.494" y="937.3" width="53.5502" height="27.5401" rx="13.77" transform="rotate(45 612.494 937.3)" fill="#3A2EDB"/>
<rect x="541" y="1013.07" width="53.5502" height="27.5401" rx="13.77" transform="rotate(-45 541 1013.07)" fill="#3A2EDB"/>
<rect x="593.02" y="1040.96" width="53.5502" height="27.5401" rx="13.77" transform="rotate(-45 593.02 1040.96)" fill="#3A2EDB"/>
<rect x="579.25" y="964.84" width="114.75" height="68.8502" rx="34.4251" fill="#3A2EDB"/>
<rect x="648.1" y="984.73" width="12.24" height="21.4201" rx="6.12002" fill="#4135DF"/>
<rect x="667.99" y="984.73" width="12.24" height="21.4201" rx="6.12002" fill="#4135DF"/>
<rect x="277.474" y="605.809" width="53.5502" height="27.5401" rx="13.77" transform="rotate(45 277.474 605.809)" fill="#3A2EDB"/>
<rect x="329.494" y="586.3" width="53.5502" height="27.5401" rx="13.77" transform="rotate(45 329.494 586.3)" fill="#3A2EDB"/>
<rect x="258" y="662.067" width="53.5502" height="27.5401" rx="13.77" transform="rotate(-45 258 662.067)" fill="#3A2EDB"/>
<rect x="310.02" y="689.956" width="53.5502" height="27.5401" rx="13.77" transform="rotate(-45 310.02 689.956)" fill="#3A2EDB"/>
<rect x="296.25" y="613.84" width="114.75" height="68.8502" rx="34.4251" fill="#3A2EDB"/>
<rect x="365.1" y="633.73" width="12.24" height="21.4201" rx="6.12002" fill="#4135DF"/>
<rect x="384.99" y="633.73" width="12.24" height="21.4201" rx="6.12002" fill="#4135DF"/>
<rect x="564.474" y="198.809" width="53.5502" height="27.5401" rx="13.77" transform="rotate(45 564.474 198.809)" fill="#3A2EDB"/>
<rect x="616.494" y="179.3" width="53.5502" height="27.5401" rx="13.77" transform="rotate(45 616.494 179.3)" fill="#3A2EDB"/>
<rect x="545" y="255.067" width="53.5502" height="27.5401" rx="13.77" transform="rotate(-45 545 255.067)" fill="#3A2EDB"/>
<rect x="597.02" y="282.956" width="53.5502" height="27.5401" rx="13.77" transform="rotate(-45 597.02 282.956)" fill="#3A2EDB"/>
<rect x="583.25" y="206.84" width="114.75" height="68.8502" rx="34.4251" fill="#3A2EDB"/>
<rect x="652.1" y="226.73" width="12.24" height="21.4201" rx="6.12002" fill="#4135DF"/>
<rect x="671.99" y="226.73" width="12.24" height="21.4201" rx="6.12002" fill="#4135DF"/>
<rect x="-8" y="147.096" width="14.803" height="33" rx="7.4015" transform="rotate(-90 -8 147.096)" fill="#3A2EDB"/>
<rect x="106" y="268.569" width="14.803" height="33" rx="7.4015" transform="rotate(90 106 268.569)" fill="#3A2EDB"/>
<rect x="106" y="386.993" width="14.803" height="33" rx="7.4015" transform="rotate(90 106 386.993)" fill="#3A2EDB"/>
<rect x="106" y="56.6924" width="14.803" height="33" rx="7.4015" transform="rotate(90 106 56.6924)" fill="#3A2EDB"/>
<rect x="166" y="166.657" width="14.803" height="33" rx="7.4015" transform="rotate(90 166 166.657)" fill="#3A2EDB"/>
<path d="M0 0H98V424H0V0Z" fill="#3A2EDB"/>
<mask id="mask0_2043_1658" style="mask-type:alpha" maskUnits="userSpaceOnUse" x="0" y="0" width="98" height="424">
<path d="M0 0H98V424H0V0Z" fill="#67C624"/>
</mask>
<g mask="url(#mask0_2043_1658)">
<rect x="42" y="71.9003" width="20.0898" height="82" rx="10.0449" transform="rotate(90 42 71.9003)" fill="#3E31E5"/>
<rect x="52" y="381.706" width="20.0898" height="105" rx="10.0449" transform="rotate(90 52 381.706)" fill="#3E31E5"/>
<rect x="127" y="302.404" width="20.0898" height="63" rx="10.0449" transform="rotate(90 127 302.404)" fill="#3E31E5"/>
</g>
<path d="M116 136.998C116 132.579 119.582 128.998 124 128.998H150C154.418 128.998 158 132.579 158 136.998V206.733C158 222.197 145.464 234.733 130 234.733H97V185.412H108C112.418 185.412 116 181.83 116 177.412V136.998Z" fill="#3A2EDB"/>
<rect x="122.18" y="134.284" width="30" height="12.6883" rx="6" fill="#3024D3"/>
<ellipse cx="144" cy="113.137" rx="7" ry="7.4015" fill="#4D41EF"/>
<ellipse cx="129.5" cy="95.6908" rx="5.5" ry="5.81546" fill="#4D41EF"/>
<rect x="-9" y="995.096" width="14.803" height="33" rx="7.4015" transform="rotate(-90 -9 995.096)" fill="#3A2EDB"/>
<rect x="105" y="1116.57" width="14.803" height="33" rx="7.4015" transform="rotate(90 105 1116.57)" fill="#3A2EDB"/>
<rect x="105" y="1234.99" width="14.803" height="33" rx="7.4015" transform="rotate(90 105 1234.99)" fill="#3A2EDB"/>
<rect x="105" y="904.692" width="14.803" height="33" rx="7.4015" transform="rotate(90 105 904.692)" fill="#3A2EDB"/>
<rect x="165" y="1014.66" width="14.803" height="33" rx="7.4015" transform="rotate(90 165 1014.66)" fill="#3A2EDB"/>
<path d="M-1 848H97V1272H-1V848Z" fill="#3A2EDB"/>
<mask id="mask1_2043_1658" style="mask-type:alpha" maskUnits="userSpaceOnUse" x="-1" y="848" width="98" height="424">
<path d="M-1 848H97V1272H-1V848Z" fill="#67C624"/>
</mask>
<g mask="url(#mask1_2043_1658)">
<rect x="41" y="919.9" width="20.0898" height="82" rx="10.0449" transform="rotate(90 41 919.9)" fill="#3E31E5"/>
<rect x="51" y="1229.71" width="20.0898" height="105" rx="10.0449" transform="rotate(90 51 1229.71)" fill="#3E31E5"/>
<rect x="126" y="1150.4" width="20.0898" height="63" rx="10.0449" transform="rotate(90 126 1150.4)" fill="#3E31E5"/>
</g>
<path d="M115 984.998C115 980.579 118.582 976.998 123 976.998H149C153.418 976.998 157 980.579 157 984.998V1054.73C157 1070.2 144.464 1082.73 129 1082.73H96V1033.41H107C111.418 1033.41 115 1029.83 115 1025.41V984.998Z" fill="#3A2EDB"/>
<rect x="121.18" y="982.284" width="30" height="12.6883" rx="6" fill="#3024D3"/>
<ellipse cx="143" cy="961.137" rx="7" ry="7.4015" fill="#4D41EF"/>
<ellipse cx="128.5" cy="943.691" rx="5.5" ry="5.81546" fill="#4D41EF"/>
<rect width="14.803" height="33" rx="7.4015" transform="matrix(4.13403e-08 -1 -1 -4.62185e-08 105 571.096)" fill="#3A2EDB"/>
<rect width="14.803" height="33" rx="7.4015" transform="matrix(4.13403e-08 1 1 -4.62185e-08 -9 692.569)" fill="#3A2EDB"/>
<rect width="14.803" height="33" rx="7.4015" transform="matrix(4.13403e-08 1 1 -4.62185e-08 -9 810.993)" fill="#3A2EDB"/>
<rect width="14.803" height="33" rx="7.4015" transform="matrix(4.13403e-08 1 1 -4.62185e-08 133 683.052)" fill="#3A2EDB"/>
<rect width="14.803" height="33" rx="7.4015" transform="matrix(4.13403e-08 1 1 -4.62185e-08 -9 480.692)" fill="#3A2EDB"/>
<path d="M97 424H-1V848H97V424Z" fill="#3A2EDB"/>
<mask id="mask2_2043_1658" style="mask-type:alpha" maskUnits="userSpaceOnUse" x="-1" y="424" width="98" height="424">
<path d="M97 424H-1V848H97V424Z" fill="#67C624"/>
</mask>
<g mask="url(#mask2_2043_1658)">
<rect width="20.0898" height="82" rx="10.0449" transform="matrix(4.13403e-08 1 1 -4.62185e-08 55 495.9)" fill="#3E31E5"/>
<rect width="20.0898" height="105" rx="10.0449" transform="matrix(4.13403e-08 1 1 -4.62185e-08 45 805.706)" fill="#3E31E5"/>
<rect width="20.0898" height="63" rx="10.0449" transform="matrix(4.13403e-08 1 1 -4.62185e-08 -30 726.404)" fill="#3E31E5"/>
</g>
<path d="M116 620.209C116 615.791 119.582 612.209 124 612.209H150C154.418 612.209 158 615.791 158 620.209V740.698C158 756.162 145.464 768.698 130 768.698H97V719.377H108C112.418 719.377 116 715.795 116 711.377V620.209Z" fill="#3A2EDB"/>
<rect x="122" y="617.496" width="30" height="12.6883" rx="6" fill="#3024D3"/>
<ellipse cx="139" cy="595.292" rx="7" ry="7.4015" fill="#4D41EF"/>
<ellipse cx="128.5" cy="558.813" rx="5.5" ry="5.81546" fill="#4D41EF"/>
<rect width="14.803" height="33" rx="7.4015" transform="matrix(4.13403e-08 -1 -1 -4.62185e-08 104 1419.1)" fill="#3A2EDB"/>
<rect width="14.803" height="33" rx="7.4015" transform="matrix(4.13403e-08 1 1 -4.62185e-08 -10 1540.57)" fill="#3A2EDB"/>
<rect width="14.803" height="33" rx="7.4015" transform="matrix(4.13403e-08 1 1 -4.62185e-08 -10 1658.99)" fill="#3A2EDB"/>
<rect width="14.803" height="33" rx="7.4015" transform="matrix(4.13403e-08 1 1 -4.62185e-08 132 1531.05)" fill="#3A2EDB"/>
<rect width="14.803" height="33" rx="7.4015" transform="matrix(4.13403e-08 1 1 -4.62185e-08 -10 1328.69)" fill="#3A2EDB"/>
<path d="M96 1272H-2V1696H96V1272Z" fill="#3A2EDB"/>
<mask id="mask3_2043_1658" style="mask-type:alpha" maskUnits="userSpaceOnUse" x="-2" y="1272" width="98" height="424">
<path d="M96 1272H-2V1696H96V1272Z" fill="#67C624"/>
</mask>
<g mask="url(#mask3_2043_1658)">
<rect width="20.0898" height="82" rx="10.0449" transform="matrix(4.13403e-08 1 1 -4.62185e-08 54 1343.9)" fill="#3E31E5"/>
<rect width="20.0898" height="105" rx="10.0449" transform="matrix(4.13403e-08 1 1 -4.62185e-08 44 1653.71)" fill="#3E31E5"/>
<rect width="20.0898" height="63" rx="10.0449" transform="matrix(4.13403e-08 1 1 -4.62185e-08 -31 1574.4)" fill="#3E31E5"/>
</g>
<path d="M115 1468.21C115 1463.79 118.582 1460.21 123 1460.21H149C153.418 1460.21 157 1463.79 157 1468.21V1588.7C157 1604.16 144.464 1616.7 129 1616.7H96V1567.38H107C111.418 1567.38 115 1563.8 115 1559.38V1468.21Z" fill="#3A2EDB"/>
<rect x="121" y="1465.5" width="30" height="12.6883" rx="6" fill="#3024D3"/>
<ellipse cx="138" cy="1443.29" rx="7" ry="7.4015" fill="#4D41EF"/>
<ellipse cx="127.5" cy="1406.81" rx="5.5" ry="5.81546" fill="#4D41EF"/>
<rect width="14.803" height="33" rx="7.4015" transform="matrix(4.13403e-08 -1 -1 -4.62185e-08 960 147.096)" fill="#3A2EDB"/>
<rect width="14.803" height="33" rx="7.4015" transform="matrix(4.13403e-08 1 1 -4.62185e-08 846 268.569)" fill="#3A2EDB"/>
<rect width="14.803" height="33" rx="7.4015" transform="matrix(4.13403e-08 1 1 -4.62185e-08 846 386.993)" fill="#3A2EDB"/>
<rect width="14.803" height="33" rx="7.4015" transform="matrix(4.13403e-08 1 1 -4.62185e-08 846 56.6924)" fill="#3A2EDB"/>
<rect width="14.803" height="33" rx="7.4015" transform="matrix(4.13403e-08 1 1 -4.62185e-08 786 166.657)" fill="#3A2EDB"/>
<path d="M952 0H854V424H952V0Z" fill="#3A2EDB"/>
<mask id="mask4_2043_1658" style="mask-type:alpha" maskUnits="userSpaceOnUse" x="854" y="0" width="98" height="424">
<path d="M952 0H854V424H952V0Z" fill="#67C624"/>
</mask>
<g mask="url(#mask4_2043_1658)">
<rect width="20.0898" height="82" rx="10.0449" transform="matrix(4.13403e-08 1 1 -4.62185e-08 910 71.9003)" fill="#3E31E5"/>
<rect width="20.0898" height="105" rx="10.0449" transform="matrix(4.13403e-08 1 1 -4.62185e-08 900 381.706)" fill="#3E31E5"/>
<rect width="20.0898" height="63" rx="10.0449" transform="matrix(4.13403e-08 1 1 -4.62185e-08 825 302.404)" fill="#3E31E5"/>
</g>
<path d="M836 136.998C836 132.579 832.418 128.998 828 128.998H802C797.582 128.998 794 132.579 794 136.998V206.733C794 222.197 806.536 234.733 822 234.733H855V185.412H844C839.582 185.412 836 181.83 836 177.412V136.998Z" fill="#3A2EDB"/>
<rect width="30" height="12.6883" rx="6" transform="matrix(-1 0 0 1 829.82 134.284)" fill="#3024D3"/>
<ellipse cx="7" cy="7.4015" rx="7" ry="7.4015" transform="matrix(-1 0 0 1 815 105.736)" fill="#4D41EF"/>
<ellipse cx="5.5" cy="5.81546" rx="5.5" ry="5.81546" transform="matrix(-1 0 0 1 828 89.8754)" fill="#4D41EF"/>
<rect width="14.803" height="33" rx="7.4015" transform="matrix(4.13403e-08 -1 -1 -4.62185e-08 961 995.096)" fill="#3A2EDB"/>
<rect width="14.803" height="33" rx="7.4015" transform="matrix(4.13403e-08 1 1 -4.62185e-08 847 1116.57)" fill="#3A2EDB"/>
<rect width="14.803" height="33" rx="7.4015" transform="matrix(4.13403e-08 1 1 -4.62185e-08 847 1234.99)" fill="#3A2EDB"/>
<rect width="14.803" height="33" rx="7.4015" transform="matrix(4.13403e-08 1 1 -4.62185e-08 847 904.692)" fill="#3A2EDB"/>
<rect width="14.803" height="33" rx="7.4015" transform="matrix(4.13403e-08 1 1 -4.62185e-08 787 1014.66)" fill="#3A2EDB"/>
<path d="M953 848H855V1272H953V848Z" fill="#3A2EDB"/>
<mask id="mask5_2043_1658" style="mask-type:alpha" maskUnits="userSpaceOnUse" x="855" y="848" width="98" height="424">
<path d="M953 848H855V1272H953V848Z" fill="#67C624"/>
</mask>
<g mask="url(#mask5_2043_1658)">
<rect width="20.0898" height="82" rx="10.0449" transform="matrix(4.13403e-08 1 1 -4.62185e-08 911 919.9)" fill="#3E31E5"/>
<rect width="20.0898" height="105" rx="10.0449" transform="matrix(4.13403e-08 1 1 -4.62185e-08 901 1229.71)" fill="#3E31E5"/>
<rect width="20.0898" height="63" rx="10.0449" transform="matrix(4.13403e-08 1 1 -4.62185e-08 826 1150.4)" fill="#3E31E5"/>
</g>
<path d="M837 984.998C837 980.579 833.418 976.998 829 976.998H803C798.582 976.998 795 980.579 795 984.998V1054.73C795 1070.2 807.536 1082.73 823 1082.73H856V1033.41H845C840.582 1033.41 837 1029.83 837 1025.41V984.998Z" fill="#3A2EDB"/>
<rect width="30" height="12.6883" rx="6" transform="matrix(-1 0 0 1 830.82 982.284)" fill="#3024D3"/>
<ellipse cx="7" cy="7.4015" rx="7" ry="7.4015" transform="matrix(-1 0 0 1 816 953.736)" fill="#4D41EF"/>
<ellipse cx="5.5" cy="5.81546" rx="5.5" ry="5.81546" transform="matrix(-1 0 0 1 829 937.875)" fill="#4D41EF"/>
<rect x="847" y="571.096" width="14.803" height="33" rx="7.4015" transform="rotate(-90 847 571.096)" fill="#3A2EDB"/>
<rect x="961" y="692.569" width="14.803" height="33" rx="7.4015" transform="rotate(90 961 692.569)" fill="#3A2EDB"/>
<rect x="961" y="810.993" width="14.803" height="33" rx="7.4015" transform="rotate(90 961 810.993)" fill="#3A2EDB"/>
<rect x="819" y="683.052" width="14.803" height="33" rx="7.4015" transform="rotate(90 819 683.052)" fill="#3A2EDB"/>
<rect x="961" y="480.692" width="14.803" height="33" rx="7.4015" transform="rotate(90 961 480.692)" fill="#3A2EDB"/>
<path d="M855 424H953V848H855V424Z" fill="#3A2EDB"/>
<mask id="mask6_2043_1658" style="mask-type:alpha" maskUnits="userSpaceOnUse" x="855" y="424" width="98" height="424">
<path d="M855 424H953V848H855V424Z" fill="#67C624"/>
</mask>
<g mask="url(#mask6_2043_1658)">
<rect x="897" y="495.9" width="20.0898" height="82" rx="10.0449" transform="rotate(90 897 495.9)" fill="#3E31E5"/>
<rect x="907" y="805.706" width="20.0898" height="105" rx="10.0449" transform="rotate(90 907 805.706)" fill="#3E31E5"/>
<rect x="982" y="726.404" width="20.0898" height="63" rx="10.0449" transform="rotate(90 982 726.404)" fill="#3E31E5"/>
</g>
<path d="M836 620.209C836 615.791 832.418 612.209 828 612.209H802C797.582 612.209 794 615.791 794 620.209V740.698C794 756.162 806.536 768.698 822 768.698H855V719.377H844C839.582 719.377 836 715.795 836 711.377V620.209Z" fill="#3A2EDB"/>
<rect width="30" height="12.6883" rx="6" transform="matrix(-1 0 0 1 830 617.496)" fill="#3024D3"/>
<ellipse cx="7" cy="7.4015" rx="7" ry="7.4015" transform="matrix(-1 0 0 1 820 587.89)" fill="#4D41EF"/>
<ellipse cx="5.5" cy="5.81546" rx="5.5" ry="5.81546" transform="matrix(-1 0 0 1 829 552.998)" fill="#4D41EF"/>
<rect x="848" y="1419.1" width="14.803" height="33" rx="7.4015" transform="rotate(-90 848 1419.1)" fill="#3A2EDB"/>
<rect x="962" y="1540.57" width="14.803" height="33" rx="7.4015" transform="rotate(90 962 1540.57)" fill="#3A2EDB"/>
<rect x="962" y="1658.99" width="14.803" height="33" rx="7.4015" transform="rotate(90 962 1658.99)" fill="#3A2EDB"/>
<rect x="820" y="1531.05" width="14.803" height="33" rx="7.4015" transform="rotate(90 820 1531.05)" fill="#3A2EDB"/>
<rect x="962" y="1328.69" width="14.803" height="33" rx="7.4015" transform="rotate(90 962 1328.69)" fill="#3A2EDB"/>
<path d="M856 1272H954V1696H856V1272Z" fill="#3A2EDB"/>
<mask id="mask7_2043_1658" style="mask-type:alpha" maskUnits="userSpaceOnUse" x="856" y="1272" width="98" height="424">
<path d="M856 1272H954V1696H856V1272Z" fill="#67C624"/>
</mask>
<g mask="url(#mask7_2043_1658)">
<rect x="898" y="1343.9" width="20.0898" height="82" rx="10.0449" transform="rotate(90 898 1343.9)" fill="#3E31E5"/>
<rect x="908" y="1653.71" width="20.0898" height="105" rx="10.0449" transform="rotate(90 908 1653.71)" fill="#3E31E5"/>
<rect x="983" y="1574.4" width="20.0898" height="63" rx="10.0449" transform="rotate(90 983 1574.4)" fill="#3E31E5"/>
</g>
<path d="M837 1468.21C837 1463.79 833.418 1460.21 829 1460.21H803C798.582 1460.21 795 1463.79 795 1468.21V1588.7C795 1604.16 807.536 1616.7 823 1616.7H856V1567.38H845C840.582 1567.38 837 1563.8 837 1559.38V1468.21Z" fill="#3A2EDB"/>
<rect width="30" height="12.6883" rx="6" transform="matrix(-1 0 0 1 831 1465.5)" fill="#3024D3"/>
<ellipse cx="7" cy="7.4015" rx="7" ry="7.4015" transform="matrix(-1 0 0 1 821 1435.89)" fill="#4D41EF"/>
<ellipse cx="5.5" cy="5.81546" rx="5.5" ry="5.81546" transform="matrix(-1 0 0 1 830 1401)" fill="#4D41EF"/>
</g>
<defs>
<clipPath id="clip0_2043_1658">
<rect width="952" height="1696" fill="white"/>
</clipPath>
</defs>
</svg>
