<svg width="28" height="77" viewBox="0 0 28 77" fill="none" xmlns="http://www.w3.org/2000/svg">
<path d="M16.9516 16.2339C16.3544 12.9494 11.6456 12.9494 11.0484 16.2338L8.38846 30.8634L7.55637 30.5435C5.4294 29.7258 3.80916 32.5321 5.58083 33.9653L7.53681 35.5475L4.45334 52.5066C2.37776 51.8164 0.837885 54.5554 2.58084 55.9653L3.66503 56.8423L0 77L28 77L16.9516 16.2339Z" fill="#FFFEFF"/>
<path d="M28 77H14L14 13.7705C15.3265 13.7705 16.653 14.5916 16.9516 16.2339L19.575 30.6627L19.885 30.5435C22.012 29.7258 23.6322 32.5321 21.8605 33.9653L20.3915 35.1536L23.575 52.6627L23.885 52.5435C26.012 51.7258 27.6322 54.5321 25.8606 55.9653L24.3916 57.1536L28 77Z" fill="#FFF0FE"/>
</svg>
