<svg width="112" height="77" viewBox="0 0 112 77" fill="none" xmlns="http://www.w3.org/2000/svg">
<path d="M16.9516 16.2339C16.3544 12.9494 11.6456 12.9494 11.0484 16.2338L8.38846 30.8634L7.55637 30.5435C5.4294 29.7258 3.80916 32.5321 5.58083 33.9653L7.53681 35.5475L4.45334 52.5066C2.37776 51.8164 0.837885 54.5554 2.58084 55.9653L3.66503 56.8423L0 77L28 77L16.9516 16.2339Z" fill="#FFFEFF"/>
<path d="M28 77H14L14 13.7705C15.3265 13.7705 16.653 14.5916 16.9516 16.2339L19.575 30.6627L19.885 30.5435C22.012 29.7258 23.6322 32.5321 21.8605 33.9653L20.3915 35.1536L23.575 52.6627L23.885 52.5435C26.012 51.7258 27.6322 54.5321 25.8606 55.9653L24.3916 57.1536L28 77Z" fill="#FFF0FE"/>
<path d="M44.9516 16.2339C44.3544 12.9494 39.6456 12.9494 39.0484 16.2338L36.3885 30.8634L35.5564 30.5435C33.4294 29.7258 31.8092 32.5321 33.5808 33.9653L35.5368 35.5475L32.4533 52.5066C30.3778 51.8164 28.8379 54.5554 30.5808 55.9653L31.665 56.8423L28 77L56 77L44.9516 16.2339Z" fill="#FFFEFF"/>
<path d="M56 77H42L42 13.7705C43.3265 13.7705 44.653 14.5916 44.9516 16.2339L47.575 30.6627L47.885 30.5435C50.012 29.7258 51.6322 32.5321 49.8605 33.9653L48.3915 35.1536L51.575 52.6627L51.885 52.5435C54.012 51.7258 55.6322 54.5321 53.8606 55.9653L52.3916 57.1536L56 77Z" fill="#FFF0FE"/>
<path d="M72.9516 16.2339C72.3544 12.9494 67.6456 12.9494 67.0484 16.2338L64.3885 30.8634L63.5564 30.5435C61.4294 29.7258 59.8092 32.5321 61.5808 33.9653L63.5368 35.5475L60.4533 52.5066C58.3778 51.8164 56.8379 54.5554 58.5808 55.9653L59.665 56.8423L56 77L84 77L72.9516 16.2339Z" fill="#FFFEFF"/>
<path d="M84 77H70L70 13.7705C71.3265 13.7705 72.653 14.5916 72.9516 16.2339L75.575 30.6627L75.885 30.5435C78.012 29.7258 79.6322 32.5321 77.8605 33.9653L76.3915 35.1536L79.575 52.6627L79.885 52.5435C82.012 51.7258 83.6322 54.5321 81.8606 55.9653L80.3916 57.1536L84 77Z" fill="#FFF0FE"/>
<path d="M100.952 16.2339C100.354 12.9494 95.6456 12.9494 95.0484 16.2338L92.3885 30.8634L91.5564 30.5435C89.4294 29.7258 87.8092 32.5321 89.5808 33.9653L91.5368 35.5475L88.4533 52.5066C86.3778 51.8164 84.8379 54.5554 86.5808 55.9653L87.665 56.8423L84 77L112 77L100.952 16.2339Z" fill="#FFFEFF"/>
<path d="M112 77H98L98 13.7705C99.3265 13.7705 100.653 14.5916 100.952 16.2339L103.575 30.6627L103.885 30.5435C106.012 29.7258 107.632 32.5321 105.861 33.9653L104.392 35.1536L107.575 52.6627L107.885 52.5435C110.012 51.7258 111.632 54.5321 109.861 55.9653L108.392 57.1536L112 77Z" fill="#FFF0FE"/>
</svg>
