<svg width="435" height="154" viewBox="0 0 435 154" fill="none" xmlns="http://www.w3.org/2000/svg">
<path d="M0 36.5C0 16.3416 16.3416 0 36.5 0C56.6584 0 73 16.3416 73 36.5V145H0V36.5Z" fill="#2AFFB2"/>
<path d="M73 36C73 16.1178 89.1178 0 109 0C128.882 0 145 16.1178 145 36V145H73V36Z" fill="#2AFFB2"/>
<path d="M0 81.5C0 61.3416 16.3416 45 36.5 45C56.6584 45 73 61.3416 73 81.5V147H0V81.5Z" fill="#2BD799"/>
<path d="M73 81C73 61.1177 89.1178 45 109 45C128.882 45 145 61.1178 145 81V147H73V81Z" fill="#2BD799"/>
<path d="M0 135.5C0 115.342 16.3416 99 36.5 99C56.6584 99 73 115.342 73 135.5V154H0V135.5Z" fill="#1FC388"/>
<path d="M73 135C73 115.118 89.1178 99 109 99C128.882 99 145 115.118 145 135V154H73V135Z" fill="#1FC388"/>
<circle cx="103" cy="132" r="6" fill="#2BD799"/>
<circle cx="49.5" cy="81.5" r="4.5" fill="#2AFFB2"/>
<circle cx="101" cy="23" r="4" fill="#2BD799"/>
<path d="M290 36.5C290 16.3416 306.342 0 326.5 0C346.658 0 363 16.3416 363 36.5V145H290V36.5Z" fill="#2AFFB2"/>
<path d="M363 36C363 16.1178 379.118 0 399 0C418.882 0 435 16.1178 435 36V145H363V36Z" fill="#2AFFB2"/>
<path d="M290 81.5C290 61.3416 306.342 45 326.5 45C346.658 45 363 61.3416 363 81.5V147H290V81.5Z" fill="#2BD799"/>
<path d="M363 81C363 61.1177 379.118 45 399 45C418.882 45 435 61.1178 435 81V147H363V81Z" fill="#2BD799"/>
<path d="M290 135.5C290 115.342 306.342 99 326.5 99C346.658 99 363 115.342 363 135.5V154H290V135.5Z" fill="#1FC388"/>
<path d="M363 135C363 115.118 379.118 99 399 99C418.882 99 435 115.118 435 135V154H363V135Z" fill="#1FC388"/>
<circle cx="404.5" cy="126.5" r="8.5" fill="#2BD799"/>
<circle cx="312.5" cy="81.5" r="4.5" fill="#2AFFB2"/>
<circle cx="384.5" cy="30.5" r="6.5" fill="#2BD799"/>
<path d="M145 36.5C145 16.3416 161.342 0 181.5 0C201.658 0 218 16.3416 218 36.5V145H145V36.5Z" fill="#2AFFB2"/>
<path d="M218 36C218 16.1178 234.118 0 254 0C273.882 0 290 16.1178 290 36V145H218V36Z" fill="#2AFFB2"/>
<path d="M145 81.5C145 61.3416 161.342 45 181.5 45C201.658 45 218 61.3416 218 81.5V147H145V81.5Z" fill="#2BD799"/>
<path d="M218 81C218 61.1177 234.118 45 254 45C273.882 45 290 61.1178 290 81V147H218V81Z" fill="#2BD799"/>
<path d="M145 135.5C145 115.342 161.342 99 181.5 99C201.658 99 218 115.342 218 135.5V154H145V135.5Z" fill="#1FC388"/>
<path d="M218 135C218 115.118 234.118 99 254 99C273.882 99 290 115.118 290 135V154H218V135Z" fill="#1FC388"/>
<circle cx="193.5" cy="29.5" r="6.5" fill="#2BD799"/>
<circle cx="240" cy="81" r="4" fill="#2AFFB2"/>
<circle cx="200" cy="129" r="6" fill="#2BD799"/>
</svg>
