<svg width="28" height="83" viewBox="0 0 28 83" fill="none" xmlns="http://www.w3.org/2000/svg">
<path d="M24 10C26.2091 10 28 11.7909 28 14C28 16.2091 26.2091 18 24 18H4C1.79086 18 0 16.2091 0 14C0 11.7909 1.79086 10 4 10L24 10Z" fill="#2BD799"/>
<path d="M24 23C26.2091 23 28 24.7909 28 27C28 29.2091 26.2091 31 24 31H4C1.79086 31 0 29.2091 0 27C0 24.7909 1.79086 23 4 23H24Z" fill="#2BD799"/>
<path d="M28 40C28 37.7909 26.2091 36 24 36H4C1.79086 36 0 37.7909 0 40C0 42.2091 1.79086 44 4 44H24C26.2091 44 28 42.2091 28 40Z" fill="#2BD799"/>
<path d="M24 49C26.2091 49 28 50.7909 28 53C28 55.2091 26.2091 57 24 57H4C1.79086 57 0 55.2091 0 53C0 50.7909 1.79086 49 4 49H24Z" fill="#2BD799"/>
<path d="M28 66C28 63.7909 26.2091 62 24 62H4C1.79086 62 0 63.7909 0 66C0 68.2091 1.79086 70 4 70H24C26.2091 70 28 68.2091 28 66Z" fill="#2BD799"/>
<path d="M10 4C10 1.79086 11.7909 0 14 0C16.2091 0 18 1.79086 18 4V83H10V4Z" fill="#2AFFB2"/>
</svg>
