<svg width="270" height="240" viewBox="0 0 270 240" fill="none" xmlns="http://www.w3.org/2000/svg">
<path d="M188.103 240C206.742 240 221.853 224.89 221.853 206.25C221.853 195.341 216.677 185.641 208.648 179.472C205.718 177.22 205.083 172.618 207.912 170.24L256.43 129.449C271.754 116.566 273.732 93.6987 260.849 78.3747C255.467 71.9732 248.342 67.9007 240.754 66.2675C237.475 65.5618 235.144 62.2343 235.591 58.9099C237.494 44.7737 230.901 30.2389 217.783 22.6651C205.615 15.6402 191.068 16.4709 180.014 23.5834C176.311 25.9661 169.906 24.1898 167.958 20.2404C162.046 8.24936 149.7 1.65066e-05 135.426 1.52588e-05C121.251 1.40196e-05 108.976 8.13614 103.017 19.9932C100.918 24.1701 93.3565 26.2176 89.4366 23.6707C78.366 16.4777 63.7498 15.6116 51.5328 22.6651C38.4122 30.2403 31.8187 44.7791 33.7253 58.9178C34.1734 62.24 31.8464 65.5659 28.5697 66.2739C20.992 67.9111 13.8793 71.9814 8.50418 78.3747C-4.37939 93.6987 -2.40103 116.566 12.923 129.449L62.3619 171.015C65.1255 173.338 64.5906 177.796 61.7921 180.078C54.2008 186.266 49.3528 195.692 49.3528 206.25C49.3528 224.89 64.4632 240 83.1028 240H188.103Z" fill="#68FFFF"/>
<path d="M27.8906 66.4274L57.8849 105.543C59.5653 107.734 62.7039 108.148 64.8952 106.468C67.0865 104.787 67.5007 101.649 65.8204 99.4575L33.551 57.3753C33.5979 57.8898 33.656 58.404 33.7253 58.9178C34.1733 62.2401 31.8463 65.5659 28.5696 66.2739C28.3428 66.3229 28.1165 66.374 27.8906 66.4274Z" fill="#51EAFF"/>
<path d="M91.8345 24.6099L107.023 81.2941C107.738 83.9615 110.479 85.5444 113.147 84.8297C115.814 84.115 117.397 81.3733 116.682 78.706L101.478 21.9627C99.0676 24.1414 95.0284 25.2472 91.8345 24.6099Z" fill="#51EAFF"/>
<path d="M169.913 22.5891L154.877 78.706C154.162 81.3733 155.745 84.115 158.412 84.8297C161.079 85.5444 163.821 83.9615 164.536 81.2942L179.996 23.5947C177.141 25.4175 172.693 24.781 169.913 22.5891Z" fill="#51EAFF"/>
<path d="M235.861 56.0447L202.571 99.4575C200.891 101.649 201.305 104.787 203.496 106.468C205.688 108.148 208.826 107.734 210.507 105.543L240.643 66.2426C237.422 65.4865 235.149 62.1966 235.591 58.9099C235.72 57.9559 235.809 57 235.861 56.0447Z" fill="#51EAFF"/>
<ellipse cx="135" cy="167.5" rx="90" ry="55" fill="#BEFFFF"/>
<path d="M41 153C54.2548 153 65 163.745 65 177L65 175.5C65 163.074 75.0736 153 87.5 153C99.9264 153 110 163.074 110 175.5V176.5C110 163.521 120.521 153 133.5 153C146.479 153 157 163.521 157 176.5V175.5C157 163.074 167.074 153 179.5 153C191.926 153 202 163.074 202 175.5V177C202 163.745 212.745 153 226 153C239.255 153 250 163.745 250 177V181C250 182.67 249.829 184.3 249.505 185.874C245.636 216.398 219.574 240 188 240H79C47.4259 240 21.3642 216.398 17.4953 185.874C17.1706 184.3 17 182.67 17 181L17 178.017C17 178.012 17 178.006 17 178L17 177C17 163.745 27.7452 153 41 153Z" fill="#51EAFF"/>
</svg>
