<svg width="112" height="35" viewBox="0 0 112 35" fill="none" xmlns="http://www.w3.org/2000/svg">
<path d="M16.7854 6.96359C15.7797 4.44915 12.2203 4.44915 11.2146 6.96359L8.79249 13.0188L7.55639 12.5435C5.42941 11.7258 3.80918 14.5321 5.58085 15.9653L7.11688 17.2078L4.92578 22.6856L4.55639 22.5435C2.42941 21.7258 0.809175 24.5321 2.58085 25.9653L3.36135 26.5966L0 35H28L16.7854 6.96359Z" fill="#FFFEFF"/>
<path d="M28 35H14V5.07776C15.1413 5.07776 16.2825 5.70637 16.7854 6.96359L19.1331 12.8326L19.885 12.5435C22.012 11.7258 23.6322 14.5321 21.8606 15.9653L20.7466 16.8664L23.133 22.8326L23.885 22.5435C26.012 21.7258 27.6322 24.5321 25.8606 25.9653L24.7466 26.8664L28 35Z" fill="#FFF0FE"/>
<path d="M44.7854 6.96359C43.7797 4.44915 40.2203 4.44915 39.2146 6.96359L36.7925 13.0188L35.5564 12.5435C33.4294 11.7258 31.8092 14.5321 33.5808 15.9653L35.1169 17.2078L32.9258 22.6856L32.5564 22.5435C30.4294 21.7258 28.8092 24.5321 30.5808 25.9653L31.3613 26.5966L28 35H56L44.7854 6.96359Z" fill="#FFFEFF"/>
<path d="M56 35H42V5.07776C43.1413 5.07776 44.2825 5.70637 44.7854 6.96359L47.1331 12.8326L47.885 12.5435C50.012 11.7258 51.6322 14.5321 49.8606 15.9653L48.7466 16.8664L51.133 22.8326L51.885 22.5435C54.012 21.7258 55.6322 24.5321 53.8606 25.9653L52.7466 26.8664L56 35Z" fill="#FFF0FE"/>
<path d="M72.7854 6.96359C71.7797 4.44915 68.2203 4.44915 67.2146 6.96359L64.7925 13.0188L63.5564 12.5435C61.4294 11.7258 59.8092 14.5321 61.5808 15.9653L63.1169 17.2078L60.9258 22.6856L60.5564 22.5435C58.4294 21.7258 56.8092 24.5321 58.5808 25.9653L59.3613 26.5966L56 35H84L72.7854 6.96359Z" fill="#FFFEFF"/>
<path d="M84 35H70V5.07776C71.1413 5.07776 72.2825 5.70637 72.7854 6.96359L75.1331 12.8326L75.885 12.5435C78.012 11.7258 79.6322 14.5321 77.8606 15.9653L76.7466 16.8664L79.133 22.8326L79.885 22.5435C82.012 21.7258 83.6322 24.5321 81.8606 25.9653L80.7466 26.8664L84 35Z" fill="#FFF0FE"/>
<path d="M100.785 6.96359C99.7797 4.44915 96.2203 4.44915 95.2146 6.96359L92.7925 13.0188L91.5564 12.5435C89.4294 11.7258 87.8092 14.5321 89.5808 15.9653L91.1169 17.2078L88.9258 22.6856L88.5564 22.5435C86.4294 21.7258 84.8092 24.5321 86.5808 25.9653L87.3613 26.5966L84 35H112L100.785 6.96359Z" fill="#FFFEFF"/>
<path d="M112 35H98V5.07776C99.1413 5.07776 100.283 5.70637 100.785 6.96359L103.133 12.8326L103.885 12.5435C106.012 11.7258 107.632 14.5321 105.861 15.9653L104.747 16.8664L107.133 22.8326L107.885 22.5435C110.012 21.7258 111.632 24.5321 109.861 25.9653L108.747 26.8664L112 35Z" fill="#FFF0FE"/>
</svg>
