<svg width="28" height="35" viewBox="0 0 28 35" fill="none" xmlns="http://www.w3.org/2000/svg">
<path d="M16.7854 6.96359C15.7797 4.44915 12.2203 4.44915 11.2146 6.96359L8.79249 13.0188L7.55639 12.5435C5.42941 11.7258 3.80918 14.5321 5.58085 15.9653L7.11688 17.2078L4.92578 22.6856L4.55639 22.5435C2.42941 21.7258 0.809175 24.5321 2.58085 25.9653L3.36135 26.5966L0 35H28L16.7854 6.96359Z" fill="#FFFEFF"/>
<path d="M28 35H14V5.07776C15.1413 5.07776 16.2825 5.70637 16.7854 6.96359L19.1331 12.8326L19.885 12.5435C22.012 11.7258 23.6322 14.5321 21.8606 15.9653L20.7466 16.8664L23.133 22.8326L23.885 22.5435C26.012 21.7258 27.6322 24.5321 25.8606 25.9653L24.7466 26.8664L28 35Z" fill="#FFF0FE"/>
</svg>
