<svg width="109" height="109" viewBox="0 0 109 109" fill="none" xmlns="http://www.w3.org/2000/svg">
<path d="M94.0125 20.5648C95.0563 18.0859 92.5623 15.592 90.0835 16.6357L70 25.0919L85.5563 40.6482L94.0125 20.5648Z" fill="#FF004D"/>
<path d="M94.0125 89.0835C95.0563 91.5623 92.5623 94.0563 90.0835 93.0126L70 84.5564L85.5563 69L94.0125 89.0835Z" fill="#FF004D"/>
<path d="M20.5648 16.6357C18.0859 15.592 15.592 18.0859 16.6357 20.5648L25.0919 40.6482L40.6482 25.0919L20.5648 16.6357Z" fill="#FF004D"/>
<path d="M16.6357 89.0835C15.592 91.5623 18.0859 94.0563 20.5648 93.0126L40.6482 84.5564L25.0919 69L16.6357 89.0835Z" fill="#FF004D"/>
<path d="M52.2217 2.8194C53.2365 0.328587 56.7635 0.328595 57.7783 2.81941L61.3282 11.5328C80.2371 14.5139 95.0978 29.6775 97.6213 48.7346L106.181 52.2217C108.671 53.2365 108.671 56.7635 106.181 57.7783L97.4672 61.3282C94.5417 79.8842 79.8842 94.5417 61.3282 97.4672L57.7783 106.181C56.7635 108.671 53.2365 108.671 52.2217 106.181L48.7346 97.6213C29.6775 95.0978 14.5139 80.2371 11.5328 61.3282L2.8194 57.7783C0.328588 56.7635 0.328596 53.2365 2.8194 52.2217L11.3787 48.7346C13.9493 29.3218 29.3218 13.9493 48.7346 11.3787L52.2217 2.8194Z" fill="#FF4079"/>
<path d="M37.5 32C39.433 32 41 30.433 41 28.5C41 26.567 39.433 25 37.5 25C35.567 25 34 26.567 34 28.5C34 30.433 35.567 32 37.5 32Z" fill="#FF5B8C"/>
<path d="M30 44.5C30 47.5376 27.5376 50 24.5 50C21.4624 50 19 47.5376 19 44.5C19 41.4624 21.4624 39 24.5 39C27.5376 39 30 41.4624 30 44.5Z" fill="#FF5B8C"/>
<path d="M83 78.5C83 82.6421 79.6421 86 75.5 86C71.3579 86 68 82.6421 68 78.5C68 74.3579 71.3579 71 75.5 71C79.6421 71 83 74.3579 83 78.5Z" fill="#FF5B8C"/>
<path d="M66 45C62.6863 45 60 47.6863 60 51V60C60 63.3137 62.6863 66 66 66C69.3137 66 72 63.3137 72 60V51C72 47.6863 69.3137 45 66 45Z" fill="white"/>
<path d="M44 45C40.6863 45 38 47.6863 38 51V60C38 63.3137 40.6863 66 44 66C47.3137 66 50 63.3137 50 60V51C50 47.6863 47.3137 45 44 45Z" fill="white"/>
</svg>
