<svg width="110" height="140" viewBox="0 0 110 140" fill="none" xmlns="http://www.w3.org/2000/svg">
<path d="M29 99.5C29 103.09 26.0898 106 22.5 106C18.9101 106 16 103.09 16 99.5L16 62L29 62L29 99.5Z" fill="#FF8DF4"/>
<path d="M93 99.5C93 103.09 90.0898 106 86.5 106C82.9101 106 80 103.09 80 99.5L80 62L93 62L93 99.5Z" fill="#FF8DF4"/>
<path d="M72 120.5C72 124.09 69.0898 127 65.5 127C61.9101 127 59 124.09 59 120.5L59 62L72 62L72 120.5Z" fill="#FF8DF4"/>
<path d="M50 120.5C50 124.09 47.0898 127 43.5 127C39.9101 127 37 124.09 37 120.5L37 62L50 62L50 120.5Z" fill="#FF8DF4"/>
<path d="M54.5295 0C28.2147 0 6.8824 21.3323 6.8824 47.6471V60.4107C3.46882 61.5145 1 64.7189 1 68.5C1 73.1944 4.80558 77 9.5 77L99.5 77C104.194 77 108 73.1944 108 68.5C108 64.7407 105.56 61.5514 102.177 60.43V47.6471C102.177 21.3323 80.8442 0 54.5295 0Z" fill="#FAAFF0"/>
<path d="M39.6274 14.1176C45.5834 14.1176 50.4117 9.28934 50.4117 3.33333C50.4117 2.24973 50.2519 1.20346 49.9545 0.216797C42.5084 0.926133 35.5621 3.34916 29.5143 7.08701C31.0387 11.1924 34.9914 14.1176 39.6274 14.1176Z" fill="#FFC3F7"/>
<path d="M2.05028 64.4037C3.08516 62.5257 4.80959 61.0809 6.88235 60.4107V56.6993C10.4595 53.1635 15.3767 50.9804 20.8039 50.9804C31.7413 50.9804 40.6078 59.8469 40.6078 70.7843C40.6078 72.9555 40.2584 75.0452 39.6127 77H9.49995C5.1106 77 1.49832 73.6729 1.04736 69.4031C1.16707 67.6654 1.51095 65.9894 2.05028 64.4037Z" fill="#FFC3F7"/>
<path d="M96.4513 77H75.7448C75.3387 75.8533 75.1176 74.6191 75.1176 73.3333C75.1176 67.269 80.0337 62.3529 86.098 62.3529C92.1623 62.3529 97.0784 67.269 97.0784 73.3333C97.0784 74.6192 96.8574 75.8533 96.4513 77Z" fill="#FFC3F7"/>
<path d="M88.9621 14.7132C95.2042 21.2376 99.6104 29.533 101.351 38.7698C99.4385 39.8046 97.2486 40.3922 94.9215 40.3922C87.4494 40.3922 81.3921 34.3348 81.3921 26.8628C81.3921 21.5293 84.4782 16.9167 88.9621 14.7132Z" fill="#FFC3F7"/>
<path d="M61.0001 30.5882C61.0001 26.6898 64.1605 23.5294 68.0589 23.5294C71.9574 23.5294 75.1178 26.6898 75.1178 30.5882V42.3529C75.1178 46.2514 71.9574 49.4118 68.0589 49.4118C64.1605 49.4118 61.0001 46.2514 61.0001 42.3529V30.5882Z" fill="white"/>
<path d="M33.9414 30.5882C33.9414 26.6898 37.1017 23.5294 41.0002 23.5294C44.8987 23.5294 48.0591 26.6898 48.0591 30.5882V42.3529C48.0591 46.2514 44.8987 49.4118 41.0002 49.4118C37.1017 49.4118 33.9414 46.2514 33.9414 42.3529V30.5882Z" fill="white"/>
</svg>
