<svg width="60" height="47" viewBox="0 0 60 47" fill="none" xmlns="http://www.w3.org/2000/svg">
<rect x="22" y="36" width="4" height="11" rx="2" fill="#FF4079"/>
<rect x="30" y="36" width="4" height="11" rx="2" fill="#FF4079"/>
<rect x="38" y="36" width="4" height="11" rx="2" fill="#FF4079"/>
<path d="M37.564 7.5C37.564 6.41065 36.8672 5.48403 35.8951 5.14147L29.146 1.24492C27.9552 0.557368 26.4324 0.96539 25.7449 2.15626C25.1663 3.15839 25.3635 4.39555 26.1502 5.17225C25.2215 5.53711 24.564 6.44177 24.564 7.5C24.564 8.84616 25.6279 9.94381 26.9608 9.99791L26.6562 10.1738C25.4653 10.8613 25.0573 12.3841 25.7449 13.575C26.4324 14.7658 27.9552 15.1738 29.146 14.4863L36.284 10.3652C37.1539 9.86293 37.6061 8.91498 37.5186 7.97629C37.5484 7.82211 37.564 7.66287 37.564 7.5Z" fill="#FF4079"/>
<path d="M15 27H8.91463C5.09579 27 2 23.9042 2 20.0854V20.0854C2 16.2665 5.09579 13.1707 8.91463 13.1707H11.0909C13.2498 13.1707 15 11.4206 15 9.26164V6" stroke="#FF4079" stroke-width="4" stroke-linecap="round"/>
<path d="M42.5 20C42.5 21.6569 41.1569 23 39.5001 23H11.9168C8.73364 23 6.82577 26.5376 8.57445 29.1974L9.75101 30.987C13.4495 36.6127 19.7303 40 26.4628 40H42.5C51.8889 40 59.5 32.3888 59.5 23V17C59.5 7.61116 51.8889 0 42.5 0H38.0001C33.3056 0 29.5001 3.80558 29.5001 8.5C29.5001 13.1944 33.3056 17 38.0001 17H39.5001C41.1569 17 42.5 18.3431 42.5 20Z" fill="#FF6E9A"/>
<path d="M41.6811 22.0598C41.1342 22.6387 40.3593 23 39.5 23H38.3787L52.2832 36.9046C53.106 36.3246 53.8751 35.6734 54.5813 34.96L41.6811 22.0598Z" fill="#FF4079"/>
<path d="M41.7361 22L59.5 22V19L42.3293 19C42.4399 19.3128 42.5 19.6494 42.5 20C42.5 20.7684 42.2112 21.4692 41.7361 22Z" fill="#FF4079"/>
<path d="M41.9739 18.3024C41.4331 17.5158 40.5268 17 39.5 17H39.0337L52.6628 3.37089C53.4674 3.97184 54.2171 4.64237 54.9028 5.37357L41.9739 18.3024Z" fill="#FF4079"/>
<path d="M37.5 16.9855V0.0144653C36.4356 0.0762098 35.4238 0.333806 34.5 0.751752V16.2483C35.4238 16.6662 36.4356 16.9238 37.5 16.9855Z" fill="#FF4079"/>
<path d="M37.5 40V23H34.5V40H37.5Z" fill="#FF4079"/>
<rect x="19.5" y="25" width="5" height="9" rx="2.5" fill="white"/>
</svg>
