<svg width="110" height="110" viewBox="0 0 110 110" fill="none" xmlns="http://www.w3.org/2000/svg">
<circle cx="55" cy="55" r="48.5" fill="#FFEB38" stroke="white" stroke-width="7"/>
<circle cx="55.0015" cy="54.9996" r="27.439" fill="#FFD705"/>
<path d="M52.8029 38.7126C53.99 37.433 56.0146 37.433 57.2016 38.7126L62.9591 44.9189L70.6579 48.3996C72.2688 49.1278 72.9038 51.0841 72.0278 52.6197L67.8767 59.8964L66.9095 68.2282C66.7072 69.9705 65.0599 71.1684 63.3401 70.8238L55.0023 69.153L46.6645 70.8238C44.9447 71.1684 43.2973 69.9705 43.0951 68.2282L42.1279 59.8964L37.9767 52.6197C37.1007 51.0841 37.7358 49.1278 39.3467 48.3996L47.0455 44.9189L52.8029 38.7126Z" fill="#FFEB38"/>
</svg>
