<svg width="112" height="110" viewBox="0 0 112 110" fill="none" xmlns="http://www.w3.org/2000/svg">
<path d="M39.4788 32.5848C36.7935 34.028 34.3928 35.9283 32.3797 38.1811L25.839 31.6403C20.9574 26.7587 13.0428 26.7587 8.16128 31.6403C3.27973 36.5219 3.27973 44.4364 8.16128 49.318L10.6362 46.8431L8.16128 49.318L11.3433 52.5L8.16116 55.6822C3.27961 60.5637 3.27961 68.4783 8.16116 73.3598C13.0427 78.2414 20.9573 78.2414 25.8388 73.3598L29.7971 69.4015C32.1547 73.1215 35.4303 76.2007 39.3072 78.3221C37.623 82.7779 38.5743 88.0008 42.1611 91.5876C47.0427 96.4692 54.9572 96.4692 59.8388 91.5876L69.9264 81.5H81.7721C96.1315 81.5 107.772 69.8594 107.772 55.5C107.772 41.1406 96.1315 29.5 81.7721 29.5H70.4499L59.839 18.8891C54.9575 14.0075 47.0429 14.0075 42.1613 18.8891C38.4587 22.5917 37.5645 28.0394 39.4788 32.5848Z" stroke="white" stroke-width="7"/>
<rect x="38.2721" y="82.7488" width="35" height="18" rx="9" transform="rotate(-45 38.2721 82.7488)" fill="#FFEB38"/>
<rect x="51.0001" y="15" width="35" height="18" rx="9" transform="rotate(45 51.0001 15)" fill="#FFEB38"/>
<path d="M10.636 70.885C7.12132 67.3702 7.12132 61.6718 10.636 58.157L22.6569 46.1362C26.1716 42.6215 31.8701 42.6215 35.3848 46.1362C38.8995 49.6509 38.8995 55.3494 35.3848 58.8641L23.364 70.885C19.8492 74.3997 14.1508 74.3997 10.636 70.885Z" fill="#FFEB38"/>
<path d="M10.6362 34.1152C14.1509 30.6005 19.8494 30.6005 23.3641 34.1152L35.3848 46.1362C38.8995 49.6509 38.8995 55.3494 35.3848 58.8641C31.8701 62.3789 26.1717 62.3786 22.657 58.8639L10.6362 46.8431C7.12144 43.3284 7.12144 37.6299 10.6362 34.1152Z" fill="#FFEB38"/>
<rect x="29.2721" y="33" width="75" height="45" rx="22.5" fill="#2AFFB2"/>
<path d="M87.2721 50C87.2721 47.7909 89.0629 46 91.2721 46C93.4812 46 95.2721 47.7909 95.2721 50V56C95.2721 58.2091 93.4812 60 91.2721 60C89.0629 60 87.2721 58.2091 87.2721 56V50Z" fill="white"/>
<path d="M74.2721 50C74.2721 47.7909 76.063 46 78.2721 46C80.4812 46 82.2721 47.7909 82.2721 50V56C82.2721 58.2091 80.4812 60 78.2721 60C76.063 60 74.2721 58.2091 74.2721 56V50Z" fill="white"/>
</svg>
