<svg width="110" height="110" viewBox="0 0 110 110" fill="none" xmlns="http://www.w3.org/2000/svg">
<path d="M31.8301 8.96295L31.8299 8.96299C26.2431 9.97399 21.0534 12.6029 16.8281 16.53C12.6047 20.4554 9.50889 25.5238 7.85797 31.1609C6.20726 36.7974 6.05877 42.8036 7.42727 48.5216C8.79591 54.2401 11.6342 59.4695 15.6529 63.6206C15.6697 63.638 15.6867 63.6552 15.7039 63.6722L48.5972 96.2693C52.3197 99.9583 58.3265 99.9359 62.0215 96.2192L94.1278 63.9234L94.2765 63.7885C94.3564 63.7161 94.4329 63.64 94.5058 63.5605L95.3154 62.6771C95.3314 62.6596 95.3473 62.642 95.3629 62.6242C99.0985 58.3781 101.666 53.159 102.816 47.5267C103.967 41.8949 103.662 36.0382 101.93 30.5702C100.199 25.1015 97.0987 20.2062 92.9341 16.4156C88.7678 12.6234 83.6912 10.0792 78.235 9.07902C78.2038 9.07331 78.1725 9.06802 78.1412 9.06315L77.0347 8.89124C77.0155 8.88826 76.9963 8.88544 76.9771 8.88278C72.6476 8.28376 68.2489 8.67246 64.0785 10.0195C60.8335 11.0676 57.7909 12.6751 55.0689 14.764C52.1706 12.5129 48.9045 10.8111 45.4155 9.75285C41.0031 8.41459 36.3589 8.14375 31.8301 8.96295Z" fill="#FF004D" stroke="white" stroke-width="7" stroke-linecap="round" stroke-linejoin="round"/>
</svg>
