<svg width="112" height="110" viewBox="0 0 112 110" fill="none" xmlns="http://www.w3.org/2000/svg">
<path d="M36.993 7.63274C28.3918 7.63274 21.4192 14.6054 21.4192 23.2066C21.4192 27.6711 23.3012 31.6982 26.3049 34.5338L10.3405 48.0015C3.39987 53.8567 2.50148 64.2408 8.33334 71.201C10.5306 73.8233 13.3786 75.5906 16.4432 76.4558C16.0046 82.5388 18.9758 88.644 24.6158 91.9114C29.866 94.9529 36.092 94.7576 40.9896 91.9543C41.0014 91.955 41.0145 91.956 41.0289 91.9576C41.0782 91.9629 41.1342 91.9732 41.1927 91.9895C41.2512 92.0057 41.3044 92.0257 41.3494 92.0465C41.3622 92.0524 41.3738 92.0582 41.384 92.0635C44.1867 97.084 49.5593 100.491 55.7327 100.491C61.8228 100.491 67.1339 97.1749 69.9665 92.2659C69.9673 92.2654 69.9682 92.2648 69.969 92.2642C70.0735 92.1956 70.2544 92.1077 70.4893 92.044C70.7241 91.9804 70.9249 91.9649 71.0501 91.9714C71.0514 91.9715 71.0527 91.9715 71.054 91.9716C75.9468 94.7584 82.1581 94.9466 87.3975 91.9114C93.0385 88.6434 96.0098 82.5363 95.5698 76.4522C98.6294 75.5856 101.473 73.8196 103.667 71.201C109.499 64.2408 108.6 53.8567 101.659 48.0015L85.3418 34.2358C88.166 31.4197 89.9202 27.5164 89.9202 23.2066C89.9202 14.6054 82.9476 7.63274 74.3464 7.63274H36.993ZM69.9127 92.3058C69.9127 92.3056 69.9148 92.3036 69.9193 92.2999C69.915 92.3041 69.9126 92.306 69.9127 92.3058ZM71.1201 91.9789C71.1202 91.979 71.1172 91.9785 71.1115 91.9771C71.1172 91.9781 71.1201 91.9787 71.1201 91.9789Z" fill="#68FFFF" stroke="white" stroke-width="7"/>
<path d="M94.3166 73.1929L83.5528 59.108C82.8821 58.2304 81.6269 58.0627 80.7493 58.7334C79.8717 59.4041 79.7039 60.6592 80.3746 61.5369L92.206 77.0186C92.1927 76.7436 92.1707 76.4685 92.1398 76.1937C91.9899 74.8613 92.9223 73.5287 94.2259 73.2151C94.2561 73.2078 94.2864 73.2004 94.3166 73.1929Z" fill="#51EAFF"/>
<path d="M71.5812 88.4955L66.0696 67.8557C65.7846 66.7885 64.6885 66.1544 63.6213 66.4394C62.5541 66.7244 61.92 67.8205 62.205 68.8877L67.7478 89.6443C68.7142 88.8158 70.286 88.3533 71.5812 88.4955Z" fill="#51EAFF"/>
<path d="M43.573 89.2424L49.0085 68.8877C49.2935 67.8205 48.6594 66.7244 47.5922 66.4394C46.5251 66.1544 45.4289 66.7885 45.1439 67.8557L39.5491 88.8072C40.6975 88.1764 42.4291 88.4296 43.573 89.2424Z" fill="#51EAFF"/>
<path d="M20.017 77.1753L31.9681 61.5369C32.6388 60.6592 32.4711 59.4041 31.5934 58.7334C30.7158 58.0627 29.4606 58.2304 28.7899 59.108L18.0062 73.2189C19.3079 73.5342 20.2388 74.8655 20.0894 76.1968C20.0528 76.5228 20.0287 76.8492 20.017 77.1753Z" fill="#51EAFF"/>
</svg>
