<svg width="112" height="110" viewBox="0 0 112 110" fill="none" xmlns="http://www.w3.org/2000/svg">
<path d="M68.8818 12.2528C62.2294 4.09889 49.7706 4.09887 43.1182 12.2528L31.7896 26.1386L15.1648 32.3962C5.17638 36.1559 1.26729 48.2194 7.15227 57.1228L16.8028 71.7231L17.6924 89.2992C18.2272 99.8661 28.366 107.252 38.5878 104.52L56 99.8678L73.4122 104.52C83.6339 107.252 93.7728 99.8661 94.3076 89.2992L95.1972 71.7231L104.848 57.1228C110.733 48.2194 106.824 36.1559 96.8352 32.3962L80.2104 26.1386L68.8818 12.2528Z" fill="#FF8DF4" stroke="white" stroke-width="7"/>
<path d="M56 15.9459C53.8443 15.9459 52.0968 17.6934 52.0968 19.8491V21.7853C52.0968 23.941 53.8443 25.6886 56 25.6886C58.1557 25.6886 59.9032 23.941 59.9032 21.7853V19.8491C59.9032 17.6934 58.1557 15.9459 56 15.9459Z" fill="#FFA2F3"/>
<path d="M101.033 45.041C100.475 42.9621 98.3372 41.7277 96.2578 42.284L94.3624 42.7911C92.283 43.3474 91.0496 45.4837 91.6076 47.5626C92.1655 49.6416 94.3035 50.8759 96.3829 50.3196L98.2783 49.8126C100.358 49.2563 101.591 47.12 101.033 45.041Z" fill="#FFA2F3"/>
<path d="M16.8985 42.284C14.8191 41.7277 12.6811 42.9621 12.1232 45.041C11.5652 47.12 12.7986 49.2563 14.878 49.8126L16.7734 50.3196C18.8528 50.8759 20.9908 49.6416 21.5487 47.5626C22.1067 45.4837 20.8733 43.3474 18.7939 42.7911L16.8985 42.284Z" fill="#FFA2F3"/>
<path d="M44.7432 72.4533C42.8763 71.3771 40.4884 72.0169 39.4097 73.8824L38.437 75.5645C37.3583 77.4299 37.9973 79.8145 39.8641 80.8906C41.731 81.9668 44.1189 81.327 45.1976 79.4615L46.1703 77.7794C47.249 75.914 46.6101 73.5294 44.7432 72.4533Z" fill="#FFA2F3"/>
<path d="M74.4718 73.8824C73.3931 72.0169 71.0052 71.3771 69.1383 72.4533C67.2715 73.5294 66.6325 75.914 67.7112 77.7794L68.6839 79.4615C69.7626 81.327 72.1505 81.9668 74.0174 80.8906C75.8843 79.8145 76.5232 77.4299 75.4445 75.5645L74.4718 73.8824Z" fill="#FFA2F3"/>
<path d="M56 31.5341C53.8443 31.5341 52.0968 33.2817 52.0968 35.4374V37.3736C52.0968 39.5293 53.8443 41.2768 56 41.2768C58.1557 41.2768 59.9032 39.5293 59.9032 37.3736V35.4374C59.9032 33.2817 58.1557 31.5341 56 31.5341Z" fill="#FFA2F3"/>
<path d="M81.1767 46.3186C83.2561 45.7623 85.394 46.9966 85.952 49.0756C86.5099 51.1545 85.2765 53.2908 83.1971 53.8471L81.3017 54.3542C79.2223 54.9105 77.0843 53.6761 76.5264 51.5972C75.9685 49.5182 77.2018 47.3819 79.2812 46.8256L81.1767 46.3186Z" fill="#FFA2F3"/>
<path d="M27.2043 49.0756C27.7623 46.9966 29.9002 45.7623 31.9796 46.3186L33.8751 46.8257C35.9545 47.3819 37.1878 49.5182 36.6299 51.5972C36.072 53.6761 33.934 54.9105 31.8546 54.3542L29.9592 53.8471C27.8798 53.2908 26.6464 51.1545 27.2043 49.0756Z" fill="#FFA2F3"/>
<path d="M31.6032 87.3822C32.6819 85.5168 35.0698 84.8769 36.9367 85.9531C38.8035 87.0292 39.4425 89.4138 38.3638 91.2792L37.3911 92.9614C36.3124 94.8268 33.9245 95.4666 32.0576 94.3905C30.1907 93.3143 29.5518 90.9297 30.6305 89.0643L31.6032 87.3822Z" fill="#FFA2F3"/>
<path d="M76.9447 85.9531C78.8116 84.8769 81.1995 85.5168 82.2782 87.3822L83.2509 89.0643C84.3296 90.9297 83.6907 93.3143 81.8238 94.3905C79.9569 95.4666 77.569 94.8268 76.4903 92.9614L75.5176 91.2792C74.4389 89.4138 75.0779 87.0292 76.9447 85.9531Z" fill="#FFA2F3"/>
<path d="M46.2419 48.0966C43.0084 48.0966 40.3871 50.7179 40.3871 53.9515V61.7271C40.3871 64.9606 43.0084 67.5819 46.2419 67.5819C49.4755 67.5819 52.0968 64.9606 52.0968 61.7271V53.9515C52.0968 50.7179 49.4755 48.0966 46.2419 48.0966Z" fill="white"/>
<path d="M65.758 48.0966C62.5245 48.0966 59.9032 50.7179 59.9032 53.9515V61.7271C59.9032 64.9606 62.5245 67.5819 65.758 67.5819C68.9916 67.5819 71.6129 64.9606 71.6129 61.7271V53.9515C71.6129 50.7179 68.9916 48.0966 65.758 48.0966Z" fill="white"/>
</svg>
